<?xml version="1.0" encoding="UTF-8"?>
<svg version="1.1" xmlns="http://www.w3.org/2000/svg" width="814" height="296">
<path d="M0 0 C268.62 0 537.24 0 814 0 C814 97.68 814 195.36 814 296 C545.38 296 276.76 296 0 296 C0 198.32 0 100.64 0 0 Z " fill="#001F62" transform="translate(0,0)"/>
<path d="M0 0 C7.65910535 5.91779307 14.22295037 12.53309134 19 21 C19.37382812 21.58007812 19.74765625 22.16015625 20.1328125 22.7578125 C25.34643963 31.06099645 26.51612117 39.75951661 26.375 49.375 C26.36339844 50.39013672 26.35179687 51.40527344 26.33984375 52.45117188 C25.9776154 69.03909943 20.10279722 83.74606702 8.484375 95.78515625 C-7.12026831 109.69684297 -23.13077389 113.0381451 -43.41845703 112.1953125 C-57.61298605 111.12139315 -70.41567118 103.14136674 -80 93 C-90.20213646 80.5307221 -95.60919592 66.75215248 -95.4375 50.625 C-95.42992676 49.62057861 -95.42235352 48.61615723 -95.41455078 47.58129883 C-95.03742238 30.54032537 -88.01288419 17.89606521 -76 6 C-69.32183646 -0.26146368 -62.60230742 -3.9598271 -54 -7 C-53.21238281 -7.3196875 -52.42476562 -7.639375 -51.61328125 -7.96875 C-35.0749809 -14.03372942 -14.31870783 -9.38962385 0 0 Z " fill="#F9FAFB" transform="translate(185,97)"/>
<path d="M0 0 C5.41769539 0.09322994 9.56207543 1.70902341 13.375 5.625 C17.6094263 12.21188536 17.98014523 18.56587985 17.0625 26.25 C14.86919434 31.88618387 11.41462343 35.32216936 6.2421875 38.296875 C1.80825848 40.23572568 -3.37484297 40.02865348 -7.96875 38.6328125 C-13.65422215 35.81501271 -16.19608023 30.73283954 -18.9375 25.25 C-19.53019295 17.63617523 -19.53434558 11.73809935 -14.61328125 5.59765625 C-12.20927987 2.91602741 -10.54987683 1.43637556 -7.0625 0.375 C-4.70690081 0.28077603 -2.35274544 0.14938066 0 0 Z " fill="#EDF0F4" transform="translate(708.9375,147.75)"/>
<path d="M0 0 C4.84911725 2.37138848 8.00137393 6.38586564 9.78125 11.37109375 C10.72949865 18.03378821 10.75933484 24.83779704 7.1484375 30.71484375 C3.51289153 35.11904801 0.06851766 37.02549737 -5.60546875 37.8828125 C-11.15892211 38.14838678 -15.92512164 38.35959939 -20.40625 34.74609375 C-24.00279688 31.15903644 -26.0122683 26.99132404 -26.65234375 21.96875 C-26.66143995 13.73668572 -26.42252678 9.05530216 -20.8515625 2.84765625 C-15.18462568 -2.25540626 -7.03536861 -1.99418019 0 0 Z " fill="#EDF1F4" transform="translate(399.21875,148.62890625)"/>
<path d="M0 0 C3.96 0 7.92 0 12 0 C12.02505615 0.87325928 12.0501123 1.74651855 12.07592773 2.64624023 C12.17087709 5.87602552 12.27012029 9.10564154 12.37231445 12.33520508 C12.41571434 13.73489199 12.45738564 15.13463359 12.49731445 16.53442383 C12.55489445 18.54261495 12.61914 20.55061149 12.68359375 22.55859375 C12.72025146 23.76829834 12.75690918 24.97800293 12.79467773 26.22436523 C12.68938266 28.90705456 12.68938266 28.90705456 14 30 C15.87321948 30.16053815 15.87321948 30.16053815 18 30.125 C18.721875 30.12757813 19.44375 30.13015625 20.1875 30.1328125 C22.02089415 30.19695276 22.02089415 30.19695276 23 29 C23.15858842 26.85613343 23.25129298 24.70733162 23.31640625 22.55859375 C23.35830078 21.25341797 23.40019531 19.94824219 23.44335938 18.60351562 C23.48317608 17.2148467 23.52288825 15.82617478 23.5625 14.4375 C23.60567989 13.04490817 23.649294 11.65232972 23.69335938 10.25976562 C23.79985876 6.83995199 23.90186923 3.42006237 24 0 C27.96 0 31.92 0 36 0 C36.07468157 4.00178342 36.12885021 8.00329167 36.16479492 12.00561523 C36.17979409 13.36441117 36.20020038 14.72315941 36.22631836 16.08178711 C36.48974647 30.1467822 36.48974647 30.1467822 33 36 C28.64010146 40.5156092 22.54517842 41.13469851 16.5625 41.375 C11.41360404 41.26876418 7.04232226 40.32728884 3 37 C-0.13854381 32.80818545 -0.35478748 29.68388571 -0.29296875 24.51171875 C-0.28872391 23.80852005 -0.28447906 23.10532135 -0.28010559 22.3808136 C-0.2634006 20.14930869 -0.22576614 17.91872887 -0.1875 15.6875 C-0.17244248 14.1686329 -0.15875594 12.64975154 -0.14648438 11.13085938 C-0.11352473 7.42027566 -0.06180016 3.71022822 0 0 Z " fill="#0D2866" transform="translate(103,130)"/>
<path d="M0 0 C3.3 0 6.6 0 10 0 C10.61488281 1.09699219 11.22976563 2.19398438 11.86328125 3.32421875 C12.67964917 4.77866735 13.49605756 6.23309323 14.3125 7.6875 C14.71662109 8.40873047 15.12074219 9.12996094 15.53710938 9.87304688 C15.93349609 10.57880859 16.32988281 11.28457031 16.73828125 12.01171875 C17.09962158 12.65584717 17.46096191 13.29997559 17.83325195 13.96362305 C19.18836984 16.3287702 20.59756105 18.66260176 22 21 C22.33 14.07 22.66 7.14 23 0 C25.97 0 28.94 0 32 0 C32 12.54 32 25.08 32 38 C29.03 38 26.06 38 23 38 C20.61433814 35.349964 19.24070092 33.44000076 17.625 30.375 C17.21378906 29.66214844 16.80257813 28.94929688 16.37890625 28.21484375 C14.0953852 24.21317503 12.06255913 20.12511826 10 16 C9.67 23.26 9.34 30.52 9 38 C6.03 38 3.06 38 0 38 C0 25.46 0 12.92 0 0 Z " fill="#E5EAEF" transform="translate(334,148)"/>
<path d="M0 0 C3.37411676 1.43640971 5.72270486 3.12306206 8 6 C9 8.875 9 8.875 9 11 C7.71086513 11.67154933 6.41859796 12.33708859 5.125 13 C4.40570313 13.37125 3.68640625 13.7425 2.9453125 14.125 C1 15 1 15 -1 15 C-1.28875 14.360625 -1.5775 13.72125 -1.875 13.0625 C-2.82823451 10.84793921 -2.82823451 10.84793921 -5 10 C-7.95769177 9.49989476 -7.95769177 9.49989476 -11 10 C-14.18581219 13.07961845 -14.23933484 16.33426917 -14.375 20.5625 C-14.40146901 23.74319215 -14.26561448 25.52779648 -12.69921875 28.3125 C-10.971695 30.37288197 -10.971695 30.37288197 -7.4375 30.4375 C-6.303125 30.293125 -5.16875 30.14875 -4 30 C-3.34 29.01 -2.68 28.02 -2 27 C-0.741875 27.12375 0.51625 27.2475 1.8125 27.375 C2.52019531 27.44460937 3.22789062 27.51421875 3.95703125 27.5859375 C6 28 6 28 9 30 C8.7416116 33.48824341 7.73533264 34.24214247 5.0625 36.6875 C0.62258153 40.0400915 -2.32928683 40.23964095 -7.75 40.3125 C-8.45382813 40.34150391 -9.15765625 40.37050781 -9.8828125 40.40039062 C-15.03991309 40.4626976 -17.94661215 39.4412193 -22 36 C-26.54193053 30.16942871 -27.71022424 24.02237518 -27.34765625 16.76171875 C-26.5049841 10.06768265 -23.84186051 6.36313082 -18.62109375 2.1640625 C-13.36380927 -1.6110478 -6.16944714 -0.67279979 0 0 Z " fill="#0B2564" transform="translate(191,130)"/>
<path d="M0 0 C1.59375 1.16796875 1.59375 1.16796875 3.59375 4.16796875 C3.59375 5.15796875 3.59375 6.14796875 3.59375 7.16796875 C0.94636084 8.62859725 -0.30073334 9.16796875 -3.40625 9.16796875 C-3.9425 8.50796875 -4.47875 7.84796875 -5.03125 7.16796875 C-8.16921322 4.52547341 -10.30208003 4.69045334 -14.28515625 4.63671875 C-16.5202071 5.018207 -16.5202071 5.018207 -18.15625 6.765625 C-19.8323242 9.98683011 -19.83988712 12.48595423 -19.84375 16.10546875 C-19.86308594 17.31074219 -19.88242187 18.51601562 -19.90234375 19.7578125 C-19.32183426 23.7482439 -18.30416318 25.40436171 -15.40625 28.16796875 C-11.65333725 28.70409914 -9.40331096 28.69273768 -6.03125 26.91796875 C-4.0351888 25.05054097 -4.0351888 25.05054097 -3.40625 21.16796875 C-6.70625 21.16796875 -10.00625 21.16796875 -13.40625 21.16796875 C-13.40625 18.85796875 -13.40625 16.54796875 -13.40625 14.16796875 C-7.46625 14.16796875 -1.52625 14.16796875 4.59375 14.16796875 C4.59375 21.09796875 4.59375 28.02796875 4.59375 35.16796875 C2.28375 35.16796875 -0.02625 35.16796875 -2.40625 35.16796875 C-2.40625 34.17796875 -2.40625 33.18796875 -2.40625 32.16796875 C-3.11007812 32.65136719 -3.81390625 33.13476562 -4.5390625 33.6328125 C-9.34443182 36.2057146 -14.10071012 36.03818958 -19.40625 35.16796875 C-23.24500913 33.18240368 -25.58898583 30.74746246 -27.56640625 26.92578125 C-28.62662776 23.44430969 -28.70776195 20.36751425 -28.71875 16.73046875 C-28.73550781 15.45300781 -28.75226562 14.17554688 -28.76953125 12.859375 C-28.1331941 6.39336843 -25.28545204 2.33314122 -20.40625 -1.83203125 C-13.36443387 -4.16454057 -6.46150493 -3.45584588 0 0 Z " fill="#EEF2F5" transform="translate(679.40625,150.83203125)"/>
<path d="M0 0 C3.63 0 7.26 0 11 0 C17.74612334 19.14965847 17.74612334 19.14965847 20.9375 28.5625 C21.33839844 29.73941406 21.73929688 30.91632813 22.15234375 32.12890625 C23 35 23 35 23 38 C20.03 38 17.06 38 14 38 C12.74335022 35.09399739 12 33.20395416 12 30 C5.565 30.495 5.565 30.495 -1 31 C-1.66 33.31 -2.32 35.62 -3 38 C-5.97 38 -8.94 38 -12 38 C-11.23093976 33.36732761 -9.75959509 29.05572288 -8.25 24.625 C-7.71088705 23.02605868 -7.17182547 21.42710003 -6.6328125 19.828125 C-6.36114258 19.02568359 -6.08947266 18.22324219 -5.80957031 17.39648438 C-4.5697946 13.72650898 -3.34756097 10.05073784 -2.125 6.375 C-1.41666667 4.25 -0.70833333 2.125 0 0 Z " fill="#EAEEF3" transform="translate(625,148)"/>
<path d="M0 0 C3.02890059 1.28975441 5.49142367 2.87794147 8 5 C6.2421875 8.890625 6.2421875 8.890625 4.0625 9.875 C2 10 2 10 -1 8 C-3.51584891 7.75849227 -3.51584891 7.75849227 -6.1875 7.875 C-7.53908203 7.90207031 -7.53908203 7.90207031 -8.91796875 7.9296875 C-9.94857422 7.96449219 -9.94857422 7.96449219 -11 8 C-11 9.65 -11 11.3 -11 13 C-9.73542969 13.32613281 -8.47085937 13.65226563 -7.16796875 13.98828125 C-5.50767008 14.42915152 -3.84752152 14.87058733 -2.1875 15.3125 C-1.35412109 15.52583984 -0.52074219 15.73917969 0.33789062 15.95898438 C1.14033203 16.17490234 1.94277344 16.39082031 2.76953125 16.61328125 C3.50792236 16.80704346 4.24631348 17.00080566 5.00708008 17.20043945 C7.28862053 18.11579471 8.45812981 19.09830048 10 21 C10.88782185 25.71905306 10.67004412 29.80881046 8.3125 34 C3.14398692 38.47006536 -2.1794546 38.42473088 -8.7578125 38.3203125 C-13.05812247 37.8954626 -16.67266092 36.82954819 -20 34 C-21.20703125 31.859375 -21.20703125 31.859375 -22 30 C-20.68 28.68 -19.36 27.36 -18 26 C-15.50638429 27.20381448 -13.31856917 28.45428722 -11 30 C-8.02550392 30.24219315 -8.02550392 30.24219315 -4.8125 30.125 C-3.72582031 30.10695312 -2.63914062 30.08890625 -1.51953125 30.0703125 C-0.68808594 30.04710937 0.14335937 30.02390625 1 30 C0.505 27.525 0.505 27.525 0 25 C-1.02480469 24.75765625 -2.04960937 24.5153125 -3.10546875 24.265625 C-4.466314 23.92775997 -5.82698197 23.58918031 -7.1875 23.25 C-8.19780273 23.01410156 -8.19780273 23.01410156 -9.22851562 22.7734375 C-13.68293361 21.64353635 -16.67821042 20.17790792 -20 17 C-21.60933127 13.78133746 -21.6079381 10.48061262 -21 7 C-15.01971491 -0.43494903 -9.11233576 -1.10420069 0 0 Z " fill="#EBEFF3" transform="translate(453,148)"/>
<path d="M0 0 C2.64 0 5.28 0 8 0 C8 4.62 8 9.24 8 14 C12.62 14 17.24 14 22 14 C22 9.38 22 4.76 22 0 C24.64 0 27.28 0 30 0 C30 12.21 30 24.42 30 37 C27.36 37 24.72 37 22 37 C22 31.72 22 26.44 22 21 C17.38 21 12.76 21 8 21 C8 26.28 8 31.56 8 37 C5.36 37 2.72 37 0 37 C0 24.79 0 12.58 0 0 Z " fill="#F4F7F9" transform="translate(522,149)"/>
<path d="M0 0 C1.5546875 1.01171875 1.5546875 1.01171875 3.9296875 3.19921875 C4.5484375 3.71484375 5.1671875 4.23046875 5.8046875 4.76171875 C6.9296875 6.19921875 6.9296875 6.19921875 6.9296875 9.19921875 C4.28229834 10.65984725 3.03520416 11.19921875 -0.0703125 11.19921875 C-0.6065625 10.53921875 -1.1428125 9.87921875 -1.6953125 9.19921875 C-4.81933938 6.56845927 -6.94688041 6.54845967 -10.94140625 6.765625 C-13.29664275 7.09100833 -13.29664275 7.09100833 -15.6328125 9.07421875 C-17.6754164 13.51466201 -17.73107276 17.38949868 -17.0703125 22.19921875 C-15.56032084 26.01959077 -15.56032084 26.01959077 -13.0703125 29.19921875 C-7.55739025 29.78070345 -4.49358279 29.55480311 -0.0703125 26.19921875 C3.1796875 27.01171875 3.1796875 27.01171875 5.9296875 28.19921875 C5.36030268 31.5016507 4.56352539 33.11031284 1.9296875 35.19921875 C-3.04216129 38.39540725 -7.32656728 38.76812304 -13.0703125 38.19921875 C-14.0603125 37.86921875 -15.0503125 37.53921875 -16.0703125 37.19921875 C-16.0703125 36.53921875 -16.0703125 35.87921875 -16.0703125 35.19921875 C-16.9365625 35.10640625 -16.9365625 35.10640625 -17.8203125 35.01171875 C-21.6816529 33.61734583 -23.43864252 30.51915996 -25.16015625 26.921875 C-27.07243183 21.20146263 -27.24546654 14.40693536 -25.16015625 8.71484375 C-19.79427311 -0.46409462 -10.20219823 -3.94613328 0 0 Z " fill="#EAEFF2" transform="translate(603.0703125,148.80078125)"/>
<path d="M0 0 C3.47877153 1.48612355 6.47293271 3.15296811 9 6 C9 7.32 9 8.64 9 10 C6.35261084 11.4606285 5.10551666 12 2 12 C1.443125 11.34 0.88625 10.68 0.3125 10 C-2.60180932 7.47951626 -4.27499086 7.52695327 -8 7.46875 C-10.98693727 8.26215521 -12.16055301 9.54065127 -14 12 C-14.55799255 15.10028168 -14.55799255 15.10028168 -14.375 18.4375 C-14.36210937 19.54996094 -14.34921875 20.66242188 -14.3359375 21.80859375 C-14.00949475 24.90979983 -13.31306602 27.19003872 -12 30 C-10.22992286 30.08114106 -8.45877902 30.13925505 -6.6875 30.1875 C-5.70136719 30.22230469 -4.71523438 30.25710937 -3.69921875 30.29296875 C-0.57480419 29.95384995 -0.01162025 29.2706013 2 27 C4.67479327 27.26095544 6.60095141 27.8004757 9 29 C8.7775114 32.00359614 7.73652009 33.34097399 5.875 35.75 C1.42735748 39.20447962 -3.95749062 38.79599588 -9.34765625 38.62109375 C-13.98360019 37.83273537 -16.32771614 36.31694987 -19.58203125 33.01953125 C-22.87029111 28.33625205 -23.31790308 24.23222405 -23.375 18.5625 C-23.40335937 17.28503906 -23.43171875 16.00757813 -23.4609375 14.69140625 C-22.75984513 9.07672582 -19.50708911 4.41938796 -15.0234375 0.92578125 C-10.25107162 -1.25771434 -5.06218827 -0.86177729 0 0 Z " fill="#EAEFF3" transform="translate(506,148)"/>
<path d="M0 0 C3.96 0 7.92 0 12 0 C12 13.2 12 26.4 12 40 C8.04 40 4.08 40 0 40 C0 26.8 0 13.6 0 0 Z " fill="#0B2765" transform="translate(146,130)"/>
<path d="M0 0 C2.97 0 5.94 0 9 0 C9 9.9 9 19.8 9 30 C13.95 30 18.9 30 24 30 C24 32.64 24 35.28 24 38 C16.08 38 8.16 38 0 38 C0 25.46 0 12.92 0 0 Z " fill="#E4EAEE" transform="translate(288,148)"/>
<path d="M0 0 C2.97 0 5.94 0 9 0 C9 9.9 9 19.8 9 30 C13.95 30 18.9 30 24 30 C24 32.64 24 35.28 24 38 C16.08 38 8.16 38 0 38 C0 25.46 0 12.92 0 0 Z " fill="#E5EAF2" transform="translate(259,148)"/>
<path d="M0 0 C3.46598258 0.85393774 5.07438505 2.73374397 7.15625 5.53125 C8.75905062 10.33965185 8.72004526 14.63827655 6.84375 19.34375 C5.15625 22.53125 5.15625 22.53125 2.15625 24.53125 C-0.90763268 25.06728841 -3.78123803 25.08504963 -6.84375 24.53125 C-10.88319387 20.79476442 -12.003961 17.09673607 -12.21875 11.71875 C-12.1626657 8.23642465 -11.91352508 5.7964502 -9.90625 2.90625 C-6.3271855 0.13064896 -4.42776337 -0.29518422 0 0 Z " fill="#062262" transform="translate(392.84375,154.46875)"/>
<path d="M0 0 C8.03095559 -0.78734859 8.03095559 -0.78734859 12 2.4375 C12.66 3.283125 13.32 4.12875 14 5 C14.33 5.33 14.66 5.66 15 6 C16.22195411 17.22452129 16.22195411 17.22452129 13.125 21.75 C9.32414138 24.48661821 6.97897197 24.6780633 2.40234375 24.69921875 C-1.11496275 23.67548239 -2.15527534 22.12216496 -4 19 C-4.4609375 15.5546875 -4.4609375 15.5546875 -4.375 11.875 C-4.36210938 10.65554687 -4.34921875 9.43609375 -4.3359375 8.1796875 C-4 5 -4 5 -2 2 C-1.34 2 -0.68 2 0 2 C0 1.34 0 0.68 0 0 Z " fill="#092663" transform="translate(703,155)"/>
<path d="M0 0 C2.97 0 5.94 0 9 0 C9 12.54 9 25.08 9 38 C6.03 38 3.06 38 0 38 C0 25.46 0 12.92 0 0 Z " fill="#E5EBF4" transform="translate(416,148)"/>
<path d="M0 0 C2.97 0 5.94 0 9 0 C9 12.54 9 25.08 9 38 C6.03 38 3.06 38 0 38 C0 25.46 0 12.92 0 0 Z " fill="#E2E7EE" transform="translate(317,148)"/>
<path d="M0 0 C2.97 0 5.94 0 9 0 C9 12.54 9 25.08 9 38 C6.03 38 3.06 38 0 38 C0 25.46 0 12.92 0 0 Z " fill="#E4E8ED" transform="translate(242,148)"/>
<path d="M0 0 C5.53846154 3.07692308 5.53846154 3.07692308 7 6 C7.37243421 11.58651317 7.17943851 15.17196374 4 20 C1.28107436 20.90630855 -0.61343987 21.22201578 -3.4375 21.3125 C-4.58025391 21.36857422 -4.58025391 21.36857422 -5.74609375 21.42578125 C-8.95792118 20.81904089 -10.06583209 19.59903812 -12 17 C-13.10217116 11.47394184 -12.97416657 6.53505035 -9.9375 1.75 C-6.20884532 -0.47132619 -4.28007514 -0.67580134 0 0 Z " fill="#E3EBEE" transform="translate(521,110)"/>
<path d="M0 0 C6.14537677 0.25254973 6.14537677 0.25254973 9.34375 1.96875 C10.78125 3.59375 10.78125 3.59375 10.78125 5.59375 C11.379375 5.26375 11.9775 4.93375 12.59375 4.59375 C14.78125 3.59375 14.78125 3.59375 17.78125 3.59375 C18.11125 2.93375 18.44125 2.27375 18.78125 1.59375 C18.78125 3.90375 18.78125 6.21375 18.78125 8.59375 C14.16125 8.59375 9.54125 8.59375 4.78125 8.59375 C11.71125 9.08875 11.71125 9.08875 18.78125 9.59375 C18.78125 9.92375 18.78125 10.25375 18.78125 10.59375 C12.84125 10.59375 6.90125 10.59375 0.78125 10.59375 C0.78125 12.90375 0.78125 15.21375 0.78125 17.59375 C4.08125 17.59375 7.38125 17.59375 10.78125 17.59375 C10.46431247 20.52542219 10.14899166 22.18357661 8.15625 24.40625 C4.72899719 26.1198764 2.56250625 26.19079046 -1.21875 25.59375 C-4.14747003 23.47510146 -4.94972953 22.82245253 -6.21875 19.59375 C-7.01073573 13.653857 -7.64478403 7.9535346 -4.46484375 2.69140625 C-2.21875 0.59375 -2.21875 0.59375 0 0 Z " fill="#142C68" transform="translate(665.21875,154.40625)"/>
<path d="M0 0 C2.64 0 5.28 0 8 0 C8 12.21 8 24.42 8 37 C5.36 37 2.72 37 0 37 C0 24.79 0 12.58 0 0 Z " fill="#F5F8FC" transform="translate(562,149)"/>
<path d="M0 0 C9.9609375 -0.1953125 9.9609375 -0.1953125 13 0 C15 2 15 2 15.25 5.375 C15 9 15 9 13.8125 11.125 C13.544375 11.74375 13.27625 12.3625 13 13 C14.31865712 15.64225405 14.31865712 15.64225405 16 18 C16 18.66 16 19.32 16 20 C13.6875 19.8125 13.6875 19.8125 11 19 C8 14.96551724 8 14.96551724 8 12 C6.68 12 5.36 12 4 12 C4 14.64 4 17.28 4 20 C2.68 20 1.36 20 0 20 C0 13.4 0 6.8 0 0 Z " fill="#DDE5EC" transform="translate(372,111)"/>
<path d="M0 0 C5 1 5 1 7.01953125 3.50390625 C7.61121094 4.51324219 8.20289063 5.52257812 8.8125 6.5625 C9.41707031 7.57441406 10.02164062 8.58632812 10.64453125 9.62890625 C11.09183594 10.41136719 11.53914063 11.19382812 12 12 C12.33 8.04 12.66 4.08 13 0 C14.32 0 15.64 0 17 0 C17 6.93 17 13.86 17 21 C12 20 12 20 10.19921875 18.00390625 C9.70035156 17.19824219 9.20148438 16.39257812 8.6875 15.5625 C8.17574219 14.75941406 7.66398437 13.95632812 7.13671875 13.12890625 C6 11 6 11 6 9 C5.34 9 4.68 9 4 9 C4 12.96 4 16.92 4 21 C2.68 21 1.36 21 0 21 C0 14.07 0 7.14 0 0 Z " fill="#DAE2EB" transform="translate(271,110)"/>
<path d="M0 0 C2.4375 1.5 2.4375 1.5 4 3 C3.67 3.99 3.34 4.98 3 6 C-1.455 5.01 -1.455 5.01 -6 4 C-6 5.32 -6 6.64 -6 8 C-5.37351562 8.12117188 -4.74703125 8.24234375 -4.1015625 8.3671875 C-2.87566406 8.61855469 -2.87566406 8.61855469 -1.625 8.875 C-0.81289063 9.03742188 -0.00078125 9.19984375 0.8359375 9.3671875 C3 10 3 10 5 12 C5.42151163 15.30184112 5.62848726 17.18023401 3.5625 19.875 C-0.27802267 21.56108312 -3.87135343 21.57573787 -8 21 C-10.5625 19.625 -10.5625 19.625 -12 18 C-12 17.34 -12 16.68 -12 16 C-10.125 15.375 -10.125 15.375 -8 15 C-7.34 15.66 -6.68 16.32 -6 17 C-2.91652174 17.16681109 -2.91652174 17.16681109 0 17 C0 16.01 0 15.02 0 14 C-0.62648438 13.80664062 -1.25296875 13.61328125 -1.8984375 13.4140625 C-2.71570313 13.15367188 -3.53296875 12.89328125 -4.375 12.625 C-5.59316406 12.24214844 -5.59316406 12.24214844 -6.8359375 11.8515625 C-9 11 -9 11 -11 9 C-11.375 6.0625 -11.375 6.0625 -11 3 C-7.93204001 -0.68155198 -4.54559187 -0.4870277 0 0 Z " fill="#E6ECF1" transform="translate(410,110)"/>
<path d="M0 0 C2.375 0.1875 2.375 0.1875 5 1 C7.3920794 4.94693102 7.54146084 9.49103157 8 14 C8.66 14 9.32 14 10 14 C10.103125 12.989375 10.20625 11.97875 10.3125 10.9375 C11.03704767 6.78781792 12.22269266 3.78643737 14 0 C15.32 0 16.64 0 18 0 C17.5443615 5.37653433 16.87409783 8.40144347 14 13 C13.18505161 15.64858227 12.59717183 18.28975864 12 21 C10.02 21 8.04 21 6 21 C4.99263372 18.06497405 3.99539496 15.12660539 3 12.1875 C2.71382813 11.35412109 2.42765625 10.52074219 2.1328125 9.66210938 C1.72675781 8.45844727 1.72675781 8.45844727 1.3125 7.23046875 C1.06113281 6.49207764 0.80976563 5.75368652 0.55078125 4.99291992 C0 3 0 3 0 0 Z " fill="#DEE4EC" transform="translate(316,110)"/>
<path d="M0 0 C4.62 0 9.24 0 14 0 C14 0.99 14 1.98 14 3 C10.7 3 7.4 3 4 3 C4 4.65 4 6.3 4 8 C6.97 8 9.94 8 13 8 C13 8.99 13 9.98 13 11 C10.03 11 7.06 11 4 11 C4 12.98 4 14.96 4 17 C7.63 17 11.26 17 15 17 C15 17.99 15 18.98 15 20 C10.05 20 5.1 20 0 20 C0 13.4 0 6.8 0 0 Z " fill="#E4EBF1" transform="translate(345,111)"/>
<path d="M0 0 C1.32 0 2.64 0 4 0 C4.33 5.28 4.66 10.56 5 16 C9.60532389 17.45314664 9.60532389 17.45314664 12 16 C12.31241371 13.45058627 12.51303421 10.99638487 12.625 8.4375 C12.68300781 7.37112305 12.68300781 7.37112305 12.7421875 6.28320312 C12.83671783 4.52257575 12.91945817 2.76132272 13 1 C13.99 1 14.98 1 16 1 C16.08112454 3.58396679 16.14054748 6.16537568 16.1875 8.75 C16.21263672 9.47960937 16.23777344 10.20921875 16.26367188 10.9609375 C16.30741705 14.16891684 16.19981291 16.59337436 14.7734375 19.49609375 C12.5158068 21.41060437 11.36345151 21.45229011 8.4375 21.3125 C7.25994141 21.27576172 7.25994141 21.27576172 6.05859375 21.23828125 C4 21 4 21 2 20 C2 19.34 2 18.68 2 18 C1.34 18 0.68 18 0 18 C0 12.06 0 6.12 0 0 Z " fill="#D7E0E9" transform="translate(242,110)"/>
<path d="M0 0 C4.62 0 9.24 0 14 0 C14 1.32 14 2.64 14 4 C10.7 4 7.4 4 4 4 C4 5.65 4 7.3 4 9 C6.97 9 9.94 9 13 9 C13 10.32 13 11.64 13 13 C10.03 13 7.06 13 4 13 C4 15.64 4 18.28 4 21 C2.68 21 1.36 21 0 21 C0 14.07 0 7.14 0 0 Z " fill="#BFCBDF" transform="translate(539,110)"/>
<path d="M0 0 C2.3125 -0.3125 2.3125 -0.3125 5 0 C7.24243223 2.86103423 8 4.34076304 8 8 C10.00803829 6.18320345 11.12335991 4.75888745 12.375 2.3125 C12.91125 1.549375 13.4475 0.78625 14 0 C16.6875 -0.3125 16.6875 -0.3125 19 0 C17.9172128 3.24836161 16.56253312 5.6152046 14.4375 8.25 C11.43839176 12.24587068 11.12199958 16.10892597 11 21 C9.68 21 8.36 21 7 21 C6.99742187 20.38253906 6.99484375 19.76507813 6.9921875 19.12890625 C6.69919299 12.71232645 5.15465225 8.92142414 1.27734375 3.8125 C0 2 0 2 0 0 Z " fill="#CEDAE6" transform="translate(467,110)"/>
<path d="M0 0 C5.28 0 10.56 0 16 0 C16 1.32 16 2.64 16 4 C14.02 4 12.04 4 10 4 C10 9.61 10 15.22 10 21 C8.68 21 7.36 21 6 21 C6 15.39 6 9.78 6 4 C4.02 4 2.04 4 0 4 C0 2.68 0 1.36 0 0 Z " fill="#D8DEEA" transform="translate(442,110)"/>
<path d="M0 0 C3.0996593 -0.39570119 5.12198451 -0.49754211 7.875 1.0625 C9.64796631 4.11594197 9.36343372 6.54737962 9 10 C7.8125 12.4375 7.8125 12.4375 6 14 C3.5 14.5 3.5 14.5 1 14 C-1.78767132 11.59683507 -1.98892571 10.12624692 -2.3125 6.4375 C-2 3 -2 3 0 0 Z " fill="#162D6A" transform="translate(515,114)"/>
<path d="M0 0 C2.3134359 0.4746275 4.62573019 0.95482279 6.9375 1.4375 C8.22527344 1.70433594 9.51304687 1.97117188 10.83984375 2.24609375 C14 3 14 3 15 4 C15.04063832 5.66617115 15.042721 7.33388095 15 9 C11.27977771 10.86011115 7.04969762 10.58206663 3 10 C0.47952267 8.58655585 -0.98182867 7.12439088 -3 5 C-2.34 4.67 -1.68 4.34 -1 4 C-0.34786708 1.97536745 -0.34786708 1.97536745 0 0 Z " fill="#0A2663" transform="translate(439,169)"/>
<path d="M0 0 C0.88429688 -0.02578125 1.76859375 -0.0515625 2.6796875 -0.078125 C5.125 0.25 5.125 0.25 6.96484375 1.56640625 C8.125 3.25 8.125 3.25 7.8125 6.4375 C7.585625 7.365625 7.35875 8.29375 7.125 9.25 C5.52004433 9.13557539 3.91601881 9.00805306 2.3125 8.875 C0.97251953 8.77058594 0.97251953 8.77058594 -0.39453125 8.6640625 C-2.875 8.25 -2.875 8.25 -5.875 6.25 C-6.125 3.6875 -6.125 3.6875 -5.875 1.25 C-4.21733202 -0.40766798 -2.27153595 0.03950497 0 0 Z " fill="#19316B" transform="translate(446.875,154.75)"/>
<path d="M0 0 C1.32 0 2.64 0 4 0 C4 6.93 4 13.86 4 21 C2.68 21 1.36 21 0 21 C0 14.07 0 7.14 0 0 Z " fill="#DCE6EE" transform="translate(427,110)"/>
<path d="M0 0 C1.32 0 2.64 0 4 0 C4 6.93 4 13.86 4 21 C2.68 21 1.36 21 0 21 C0 14.07 0 7.14 0 0 Z " fill="#DCE5F0" transform="translate(301,110)"/>
<path d="M0 0 C5.28 0 10.56 0 16 0 C16 1.65 16 3.3 16 5 C15.01 5 14.02 5 13 5 C13.33 6.32 13.66 7.64 14 9 C11.03 9 8.06 9 5 9 C5 7.35 5 5.7 5 4 C8.3 4 11.6 4 15 4 C15 3.01 15 2.02 15 1 C10.38 1 5.76 1 1 1 C1 7.6 1 14.2 1 21 C0.67 21 0.34 21 0 21 C0 14.07 0 7.14 0 0 Z " fill="#3E5485" transform="translate(344,110)"/>
<path d="M0 0 C2.4375 1.5 2.4375 1.5 4 3 C3.67 3.99 3.34 4.98 3 6 C-1.455 5.01 -1.455 5.01 -6 4 C-6 5.32 -6 6.64 -6 8 C-5.34 8.33 -4.68 8.66 -4 9 C-5.65 9.66 -7.3 10.32 -9 11 C-11 9 -11 9 -11.375 6.0625 C-11 3 -11 3 -9.4375 1.125 C-6.08586365 -0.42190908 -3.65177642 -0.39126176 0 0 Z " fill="#C9D3E0" transform="translate(410,110)"/>
<path d="M0 0 C4.3527679 0.43527679 6.38214719 1.64864296 9.75 4.375 C11.35725635 7.58951269 10.80748185 10.81112536 10.75 14.375 C10.42 14.375 10.09 14.375 9.75 14.375 C9.42 12.725 9.09 11.075 8.75 9.375 C8.09 10.695 7.43 12.015 6.75 13.375 C6.440625 12.240625 6.13125 11.10625 5.8125 9.9375 C5.12075469 6.58724901 5.12075469 6.58724901 3.75 5.375 C0.79182893 5.12494614 0.79182893 5.12494614 -2.25 5.375 C-2.91 6.035 -3.57 6.695 -4.25 7.375 C-4.875 5 -4.875 5 -5.25 2.375 C-3.25 0.375 -3.25 0.375 0 0 Z " fill="#D5E1EB" transform="translate(517.25,109.625)"/>
<path d="M0 0 C0.99 0 1.98 0 3 0 C3.08112454 2.58396679 3.14054748 5.16537568 3.1875 7.75 C3.22520508 8.84441406 3.22520508 8.84441406 3.26367188 9.9609375 C3.30834694 13.23710902 3.22285432 15.58538732 1.65625 18.5 C0 20 0 20 -2.6875 20.25 C-3.450625 20.1675 -4.21375 20.085 -5 20 C-5.33 19.01 -5.66 18.02 -6 17 C-4.35 16.34 -2.7 15.68 -1 15 C-0.67 10.05 -0.34 5.1 0 0 Z " fill="#F4FBFD" transform="translate(255,111)"/>
<path d="M0 0 C3.96 0 7.92 0 12 0 C12 0.99 12 1.98 12 3 C9.03 3 6.06 3 3 3 C2.67 8.28 2.34 13.56 2 19 C1.34 19 0.68 19 0 19 C0 12.73 0 6.46 0 0 Z " fill="#F0F6F8" transform="translate(540,111)"/>
<path d="M0 0 C0.33 0 0.66 0 1 0 C1.04898438 0.86882812 1.09796875 1.73765625 1.1484375 2.6328125 C1.22320313 3.78523437 1.29796875 4.93765625 1.375 6.125 C1.47941406 7.83042969 1.47941406 7.83042969 1.5859375 9.5703125 C1.99443876 12.95393616 2.80967569 15.81612441 4 19 C3.34 19 2.68 19 2 19 C2 18.34 2 17.68 2 17 C0.35 18.32 -1.3 19.64 -3 21 C-3.99 17.7 -4.98 14.4 -6 11 C-4.35 10.67 -2.7 10.34 -1 10 C-0.67 6.7 -0.34 3.4 0 0 Z " fill="#253E74" transform="translate(650,162)"/>
<path d="M0 0 C0.99 0.33 1.98 0.66 3 1 C4.39044898 4.87862084 5 7.86462003 5 12 C2.69 12 0.38 12 -2 12 C-1.85831863 10.56208484 -1.71148957 9.1246763 -1.5625 7.6875 C-1.48128906 6.88699219 -1.40007813 6.08648437 -1.31640625 5.26171875 C-1 3 -1 3 0 0 Z " fill="#1A3268" transform="translate(629,159)"/>
<path d="M0 0 C3.63 0 7.26 0 11 0 C10.67 0.66 10.34 1.32 10 2 C7.69 2.33 5.38 2.66 3 3 C2.67 8.28 2.34 13.56 2 19 C1.34 19 0.68 19 0 19 C0 12.73 0 6.46 0 0 Z " fill="#F7FBFB" transform="translate(373,111)"/>
<path d="M0 0 C2.42130331 3.63195496 2.21022785 5.38349348 2.125 9.6875 C2.10695313 10.86699219 2.08890625 12.04648438 2.0703125 13.26171875 C2.03550781 14.61716797 2.03550781 14.61716797 2 16 C1.01 16.33 0.02 16.66 -1 17 C-1.89109922 13.92748989 -2.16339724 11.13352607 -2.1875 7.9375 C-2.20167969 7.08027344 -2.21585937 6.22304687 -2.23046875 5.33984375 C-2 3 -2 3 0 0 Z " fill="#0E2867" transform="translate(371,156)"/>
<path d="M0 0 C0.33 1.65 0.66 3.3 1 5 C-1.64738916 6.4606285 -2.89448334 7 -6 7 C-8.1875 4.5 -8.1875 4.5 -10 2 C-3.375 -1.125 -3.375 -1.125 0 0 Z " fill="#DBE4EA" transform="translate(682,153)"/>
<path d="M0 0 C5.625 -0.25 5.625 -0.25 9 2 C8.67 3.32 8.34 4.64 8 6 C5.25 6.25 5.25 6.25 2 6 C-0.375 4 -0.375 4 -2 2 C-1.34 2 -0.68 2 0 2 C0 1.34 0 0.68 0 0 Z " fill="#0C2666" transform="translate(402,122)"/>
<path d="M0 0 C0.99 0 1.98 0 3 0 C3 3.96 3 7.92 3 12 C1.68 12 0.36 12 -1 12 C-1.02687279 10.18757948 -1.04633715 8.37504767 -1.0625 6.5625 C-1.07410156 5.55316406 -1.08570313 4.54382813 -1.09765625 3.50390625 C-1 1 -1 1 0 0 Z " fill="#E8ECF2" transform="translate(475,119)"/>
<path d="M0 0 C2.475 0.495 2.475 0.495 5 1 C5.66 3.31 6.32 5.62 7 8 C6.01 8 5.02 8 4 8 C4.33 9.98 4.66 11.96 5 14 C2.81385576 11.81385576 2.31743465 10.46120051 1.375 7.5625 C1.11460937 6.78003906 0.85421875 5.99757813 0.5859375 5.19140625 C0 3 0 3 0 0 Z " fill="#C2CEDD" transform="translate(316,110)"/>
<path d="M0 0 C0.66 0 1.32 0 2 0 C1.67 3.96 1.34 7.92 1 12 C0.01 12 -0.98 12 -2 12 C-2.05395478 10.37536158 -2.09277195 8.75021459 -2.125 7.125 C-2.14820313 6.22007813 -2.17140625 5.31515625 -2.1953125 4.3828125 C-2 2 -2 2 0 0 Z " fill="#EBF2F7" transform="translate(511,113)"/>
<path d="M0 0 C0.33 0 0.66 0 1 0 C1 6.93 1 13.86 1 21 C-1.83328987 18.16671013 -2.7191375 16.64553172 -4 13 C-2.68 13 -1.36 13 0 13 C0 8.71 0 4.42 0 0 Z " fill="#182D68" transform="translate(356,149)"/>
<path d="M0 0 C2.8290723 2.8290723 3.37611108 3.38144425 4 7 C3.01 7.33 2.02 7.66 1 8 C1 12.95 1 17.9 1 23 C0.67 23 0.34 23 0 23 C0 15.41 0 7.82 0 0 Z " fill="#304271" transform="translate(343,163)"/>
<path d="M0 0 C0.33 0.99 0.66 1.98 1 3 C-2.34247714 6.39053192 -4.45081205 8.3224922 -9.3046875 8.48828125 C-10.82889745 8.4554319 -12.35274388 8.39635309 -13.875 8.3125 C-15.050625 8.27866211 -15.050625 8.27866211 -16.25 8.24414062 C-18.1675026 8.18568018 -20.0840106 8.09601283 -22 8 C-22 7.67 -22 7.34 -22 7 C-21.05898437 6.97421875 -20.11796875 6.9484375 -19.1484375 6.921875 C-10.58389406 6.53177157 -6.08032968 6.08032968 0 0 Z " fill="#B4BED5" transform="translate(199,163)"/>
<path d="M0 0 C1.8125 0.8125 1.8125 0.8125 4 2 C5.66140763 2.67966676 7.32700041 3.34938905 9 4 C9 4.66 9 5.32 9 6 C2.64948454 6.36637589 2.64948454 6.36637589 -0.4375 4.625 C-2 3 -2 3 -2 1 C-1.34 0.67 -0.68 0.34 0 0 Z " fill="#D7DFE8" transform="translate(400,125)"/>
<path d="M0 0 C2.97 0 5.94 0 9 0 C9 0.66 9 1.32 9 2 C6.69 2 4.38 2 2 2 C2 2.99 2 3.98 2 5 C4.97 5 7.94 5 11 5 C11 5.33 11 5.66 11 6 C7.37 6 3.74 6 0 6 C0 4.02 0 2.04 0 0 Z " fill="#41517D" transform="translate(349,122)"/>
<path d="M0 0 C2.31 0 4.62 0 7 0 C7 1.65 7 3.3 7 5 C4.69 5 2.38 5 0 5 C0 3.35 0 1.7 0 0 Z " fill="#183167" transform="translate(376,114)"/>
<path d="M0 0 C0.75410156 0.00322266 1.50820312 0.00644531 2.28515625 0.00976562 C3.06246094 0.01814453 3.83976563 0.02652344 4.640625 0.03515625 C5.43339844 0.03966797 6.22617188 0.04417969 7.04296875 0.04882812 C8.99222008 0.0605706 10.94143238 0.07850479 12.890625 0.09765625 C12.890625 0.42765625 12.890625 0.75765625 12.890625 1.09765625 C11.64345703 1.18853516 11.64345703 1.18853516 10.37109375 1.28125 C8.74107422 1.40693359 8.74107422 1.40693359 7.078125 1.53515625 C5.99917969 1.61636719 4.92023438 1.69757813 3.80859375 1.78125 C0.83072595 1.99978086 0.83072595 1.99978086 -2.109375 3.09765625 C-3.67055928 3.1650649 -5.2344002 3.18280081 -6.796875 3.16015625 C-8.00923828 3.14662109 -8.00923828 3.14662109 -9.24609375 3.1328125 C-10.16841797 3.11541016 -10.16841797 3.11541016 -11.109375 3.09765625 C-7.30695124 0.56270707 -4.50847202 -0.03415509 0 0 Z " fill="#ABBCD3" transform="translate(145.109375,86.90234375)"/>
<path d="M0 0 C0.99 0 1.98 0 3 0 C3.1953125 2.05078125 3.390625 4.1015625 3.5859375 6.15234375 C3.72257812 6.76207031 3.85921875 7.37179688 4 8 C4.66 8.33 5.32 8.66 6 9 C4.02 9.99 4.02 9.99 2 11 C1.664061 9.5422647 1.33133376 8.08378894 1 6.625 C0.814375 5.81289062 0.62875 5.00078125 0.4375 4.1640625 C0 2 0 2 0 0 Z " fill="#F0F4F7" transform="translate(320,118)"/>
<path d="M0 0 C4.62 0 9.24 0 14 0 C14 0.66 14 1.32 14 2 C12.73542969 2.07347656 12.73542969 2.07347656 11.4453125 2.1484375 C10.34960938 2.22320312 9.25390625 2.29796875 8.125 2.375 C6.48917969 2.47941406 6.48917969 2.47941406 4.8203125 2.5859375 C1.86953526 2.73253491 1.86953526 2.73253491 0 5 C0 3.35 0 1.7 0 0 Z " fill="#F5FBFC" transform="translate(345,111)"/>
<path d="M0 0 C0.33 0.66 0.66 1.32 1 2 C-0.3125 4.625 -0.3125 4.625 -2 7 C-2.66 7 -3.32 7 -4 7 C-4.226875 7.639375 -4.45375 8.27875 -4.6875 8.9375 C-6 11 -6 11 -8.625 11.75 C-9.40875 11.8325 -10.1925 11.915 -11 12 C-10.29875 11.319375 -9.5975 10.63875 -8.875 9.9375 C-5.72065663 6.79219487 -2.86065696 3.4111614 0 0 Z " fill="#2C3E6C" transform="translate(199,185)"/>
<path d="M0 0 C0.66 0 1.32 0 2 0 C3.1875 2.0625 3.1875 2.0625 4 5 C3.27873258 7.54812724 2.21291073 9.62082896 1 12 C0.67 12 0.34 12 0 12 C0 8.04 0 4.08 0 0 Z " fill="#35487C" transform="translate(275,119)"/>
<path d="M0 0 C2.97 0 5.94 0 9 0 C9 0.99 9 1.98 9 3 C5.7 3 2.4 3 -1 3 C-0.67 2.01 -0.34 1.02 0 0 Z " fill="#EBF3F6" transform="translate(349,119)"/>
<path d="M0 0 C0.99 0.66 1.98 1.32 3 2 C2.67 2.66 2.34 3.32 2 4 C1.34 3.67 0.68 3.34 0 3 C0 4.98 0 6.96 0 9 C-2.64 9 -5.28 9 -8 9 C-8 8.67 -8 8.34 -8 8 C-5.69 8 -3.38 8 -1 8 C-1 6.35 -1 4.7 -1 3 C-3.31 3 -5.62 3 -8 3 C-8 2.67 -8 2.34 -8 2 C-6.865625 1.855625 -5.73125 1.71125 -4.5625 1.5625 C-1.19222799 1.38828522 -1.19222799 1.38828522 0 0 Z " fill="#BEC9DD" transform="translate(384,111)"/>
<path d="M0 0 C2.64 0 5.28 0 8 0 C8.66 1.32 9.32 2.64 10 4 C6.09567131 4 3.61973402 3.31626692 0 2 C0 1.34 0 0.68 0 0 Z " fill="#E4EDF1" transform="translate(404,111)"/>
<path d="M0 0 C0.66 0 1.32 0 2 0 C3 3 3 3 2 6 C-0.06640625 6.94921875 -0.06640625 6.94921875 -2.5625 7.6875 C-3.80193359 8.06455078 -3.80193359 8.06455078 -5.06640625 8.44921875 C-5.70449219 8.63097656 -6.34257813 8.81273437 -7 9 C-5.625 7.5 -5.625 7.5 -4 6 C-3.34 6 -2.68 6 -2 6 C-1.34 4.02 -0.68 2.04 0 0 Z " fill="#35487A" transform="translate(609,177)"/>
<path d="M0 0 C-0.66 1.32 -1.32 2.64 -2 4 C-3.65 4 -5.3 4 -7 4 C-7.33 3.01 -7.66 2.02 -8 1 C-3.375 -1.125 -3.375 -1.125 0 0 Z " fill="#E6EBF1" transform="translate(257,127)"/>
<path d="M0 0 C2.64 0 5.28 0 8 0 C7.67 1.32 7.34 2.64 7 4 C4.69 3.67 2.38 3.34 0 3 C0 2.01 0 1.02 0 0 Z " fill="#09255D" transform="translate(318,186)"/>
<path d="M0 0 C0.66 0 1.32 0 2 0 C1.34 2.97 0.68 5.94 0 9 C-0.66 9 -1.32 9 -2 9 C-2.33 7.02 -2.66 5.04 -3 3 C-2.34 3 -1.68 3 -1 3 C-0.67 2.01 -0.34 1.02 0 0 Z " fill="#20356F" transform="translate(326,115)"/>
<path d="M0 0 C2 1.3125 2 1.3125 4 3 C4 3.99 4 4.98 4 6 C2.1875 7.0625 2.1875 7.0625 0 8 C-0.99 7.67 -1.98 7.34 -3 7 C-2.34 7 -1.68 7 -1 7 C-0.67 4.69 -0.34 2.38 0 0 Z " fill="#D6DFE8" transform="translate(606,152)"/>
<path d="M0 0 C1.65 0.33 3.3 0.66 5 1 C4.01 1.495 4.01 1.495 3 2 C3 2.99 3 3.98 3 5 C2.34 5 1.68 5 1 5 C0.67 5.99 0.34 6.98 0 8 C-0.99 6.68 -1.98 5.36 -3 4 C-2.34 4 -1.68 4 -1 4 C-0.67 2.68 -0.34 1.36 0 0 Z " fill="#162E6C" transform="translate(439,169)"/>
<path d="M0 0 C0.625 1.8125 0.625 1.8125 1 4 C0.01 5.485 0.01 5.485 -1 7 C-1.39387788 9.32387947 -1.73486085 11.65793749 -2 14 C-2.33 14 -2.66 14 -3 14 C-3.08153933 12.41753293 -3.13943557 10.83383727 -3.1875 9.25 C-3.22230469 8.36828125 -3.25710938 7.4865625 -3.29296875 6.578125 C-2.94923684 3.55328417 -1.99772541 2.24416398 0 0 Z " fill="#3D4E7B" transform="translate(384,157)"/>
<path d="M0 0 C2.97 0.495 2.97 0.495 6 1 C6.5625 2.9375 6.5625 2.9375 7 5 C6 6 6 6 2.9375 6.0625 C1.4834375 6.0315625 1.4834375 6.0315625 0 6 C1.32 5.67 2.64 5.34 4 5 C3.73323796 3.01508358 3.73323796 3.01508358 3 1 C2.01 0.67 1.02 0.34 0 0 Z " fill="#45557E" transform="translate(404,122)"/>
<path d="M0 0 C0.33 0 0.66 0 1 0 C1.05389087 1.95803507 1.09274217 3.91648909 1.125 5.875 C1.14820313 6.96554688 1.17140625 8.05609375 1.1953125 9.1796875 C1 12 1 12 -1 14 C-1.66 12.02 -2.32 10.04 -3 8 C-2.34 7.34 -1.68 6.68 -1 6 C-0.60235737 4.01178687 -0.26224651 2.01055661 0 0 Z " fill="#3F517F" transform="translate(387,114)"/>
<path d="M0 0 C1.98 0 3.96 0 6 0 C5.67 0.99 5.34 1.98 5 3 C5.33 3.66 5.66 4.32 6 5 C3.03 4.505 3.03 4.505 0 4 C0 2.68 0 1.36 0 0 Z " fill="#1A3068" transform="translate(404,114)"/>
<path d="M0 0 C1 3 1 3 1 7 C-0.65 6.67 -2.3 6.34 -4 6 C-3.67 4.68 -3.34 3.36 -3 2 C-2.01 2 -1.02 2 0 2 C0 1.34 0 0.68 0 0 Z " fill="#1F346A" transform="translate(683,156)"/>
<path d="M0 0 C0.33 0 0.66 0 1 0 C1.48828125 2.01822917 1.9765625 4.03645833 2.46484375 6.0546875 C2.94846992 8.0585657 2.94846992 8.0585657 4 10 C2.02 10 0.04 10 -2 10 C-2 9.01 -2 8.02 -2 7 C-1.67 7 -1.34 7 -1 7 C-0.67 4.69 -0.34 2.38 0 0 Z " fill="#C2CAD9" transform="translate(512,118)"/>
<path d="M0 0 C1.65 0 3.3 0 5 0 C4.34 1.65 3.68 3.3 3 5 C2.34 4.67 1.68 4.34 1 4 C0.01 4.33 -0.98 4.66 -2 5 C-1.34 3.35 -0.68 1.7 0 0 Z " fill="#AFC0D6" transform="translate(481,110)"/>
<path d="M0 0 C1.32 0 2.64 0 4 0 C3.4140625 6.15234375 3.4140625 6.15234375 3 8 C2.01 8.495 2.01 8.495 1 9 C1.33 6.69 1.66 4.38 2 2 C1.34 2 0.68 2 0 2 C-0.33 2.99 -0.66 3.98 -1 5 C-0.67 3.35 -0.34 1.7 0 0 Z " fill="#93A6C0" transform="translate(330,110)"/>
<path d="M0 0 C0.66 0.33 1.32 0.66 2 1 C-0.64960955 4.63094642 -3.01824456 6.89851796 -7 9 C-5.44499019 5.18315774 -2.96404505 2.80804268 0 0 Z " fill="#CDD9E6" transform="translate(699,149)"/>
<path d="M0 0 C0.66 0.33 1.32 0.66 2 1 C0.1875 3.5 0.1875 3.5 -2 6 C-2.99 6 -3.98 6 -5 6 C-5 6.66 -5 7.32 -5 8 C-5.66 7.67 -6.32 7.34 -7 7 C-4.78071806 4.09197539 -3.07030857 2.04687238 0 0 Z " fill="#CAD4E1" transform="translate(382,149)"/>
<path d="M0 0 C0.99 0.33 1.98 0.66 3 1 C3 2.65 3 4.3 3 6 C1.68 6.33 0.36 6.66 -1 7 C-0.67 4.69 -0.34 2.38 0 0 Z " fill="#F5F8F9" transform="translate(384,114)"/>
<path d="M0 0 C-3.69172595 3.53790403 -7.09390595 3.59115883 -12 4 C-8.71298741 1.21868166 -4.24676932 -2.12338466 0 0 Z " fill="#CEDBE7" transform="translate(133,91)"/>
<path d="M0 0 C2.2477975 2.05233685 3.0022242 3.00667261 4 6 C4.03954234 8.33299825 4.04401732 10.66708189 4 13 C3.67 13 3.34 13 3 13 C2.67 10.36 2.34 7.72 2 5 C1.34 5 0.68 5 0 5 C0 3.35 0 1.7 0 0 Z " fill="#535F84" transform="translate(397,157)"/>
<path d="M0 0 C0.33 0 0.66 0 1 0 C1 2.97 1 5.94 1 9 C0.01 8.67 -0.98 8.34 -2 8 C-1.125 1.125 -1.125 1.125 0 0 Z " fill="#F0F9F9" transform="translate(526,118)"/>
<path d="M0 0 C0.66 1.65 1.32 3.3 2 5 C0.68 5 -0.64 5 -2 5 C-2.66 3.68 -3.32 2.36 -4 1 C-2 0 -2 0 0 0 Z " fill="#172E6A" transform="translate(348,170)"/>
<path d="M0 0 C0.33 0.99 0.66 1.98 1 3 C0.01 4.485 0.01 4.485 -1 6 C-1.99 5.67 -2.98 5.34 -4 5 C-4 4.01 -4 3.02 -4 2 C-2.68 1.34 -1.36 0.68 0 0 Z " fill="#E6ECF1" transform="translate(482,113)"/>
<path d="M0 0 C0.33 0.99 0.66 1.98 1 3 C-0.32 3.99 -1.64 4.98 -3 6 C-3.33 4.35 -3.66 2.7 -4 1 C-2.68 0.67 -1.36 0.34 0 0 Z " fill="#DCE5EC" transform="translate(514,177)"/>
</svg>
